<svg version="1.1" id="Layer_1" xmlns="http://www.w3.org/2000/svg" xmlns:xlink="http://www.w3.org/1999/xlink" x="0px" y="0px"
	 width="100%" viewBox="0 0 1171 1171" enable-background="new 0 0 1171 1171" xml:space="preserve">
<path fill="#FFFFFF" opacity="1.000000" stroke="none" 
	d="
M745.000000,1172.000000 
	C496.666656,1172.000000 248.833328,1172.000000 1.000000,1172.000000 
	C1.000000,781.666687 1.000000,391.333344 1.000000,1.000000 
	C391.333344,1.000000 781.666687,1.000000 1172.000000,1.000000 
	C1172.000000,391.333344 1172.000000,781.666687 1172.000000,1172.000000 
	C1029.833374,1172.000000 887.666687,1172.000000 745.000000,1172.000000 
M251.314987,696.188660 
	C308.155365,763.102112 364.938416,830.064392 421.878143,896.893127 
	C435.359314,912.715515 452.919647,920.690735 473.663300,920.825623 
	C483.801056,920.891663 493.946594,919.719604 504.088989,919.113647 
	C544.997314,916.669434 585.909485,914.287659 626.813232,911.769531 
	C678.022949,908.617004 729.224670,905.334229 780.432068,902.143311 
	C823.492249,899.460144 866.561829,896.924744 909.615234,894.138611 
	C937.368958,892.342529 956.320801,877.028076 967.364136,852.722656 
	C983.588013,817.014954 998.486389,780.699707 1013.658264,744.521179 
	C1023.804443,720.326660 1034.105957,696.162170 1043.122925,671.539368 
	C1051.814575,647.804871 1046.504272,625.938416 1030.263062,606.792236 
	C976.163513,543.016296 921.995117,479.298767 867.842468,415.567993 
	C828.899658,369.737396 789.942078,323.919434 750.985718,278.100342 
	C740.673462,265.971466 727.813782,257.516296 711.960815,256.045288 
	C698.963196,254.839233 685.706970,255.627960 672.614380,256.382965 
	C626.713684,259.029877 580.836975,262.088043 534.945984,264.906525 
	C494.043335,267.418610 453.132111,269.790375 412.227936,272.277924 
	C364.343170,275.190002 316.453552,278.035583 268.587372,281.229431 
	C260.697601,281.755859 252.619095,283.020752 245.142715,285.498230 
	C223.756851,292.584869 211.561005,309.277161 203.073212,328.928284 
	C183.628876,373.946259 164.325882,419.028778 145.462891,464.292358 
	C138.911026,480.014160 130.356232,494.964325 127.459198,512.200439 
	C124.012093,532.709351 128.227417,551.065002 141.534912,566.859741 
	C177.816620,609.922791 214.404739,652.727661 251.314987,696.188660 
z"/>
<path fill="#0D5495" opacity="1.000000" stroke="none" 
	d="
M251.093231,695.911743 
	C214.404739,652.727661 177.816620,609.922791 141.534912,566.859741 
	C128.227417,551.065002 124.012093,532.709351 127.459198,512.200439 
	C130.356232,494.964325 138.911026,480.014160 145.462891,464.292358 
	C164.325882,419.028778 183.628876,373.946259 203.073212,328.928284 
	C211.561005,309.277161 223.756851,292.584869 245.142715,285.498230 
	C252.619095,283.020752 260.697601,281.755859 268.587372,281.229431 
	C316.453552,278.035583 364.343170,275.190002 412.227936,272.277924 
	C453.132111,269.790375 494.043335,267.418610 534.945984,264.906525 
	C580.836975,262.088043 626.713684,259.029877 672.614380,256.382965 
	C685.706970,255.627960 698.963196,254.839233 711.960815,256.045288 
	C727.813782,257.516296 740.673462,265.971466 750.985718,278.100342 
	C789.942078,323.919434 828.899658,369.737396 867.842468,415.567993 
	C921.995117,479.298767 976.163513,543.016296 1030.263062,606.792236 
	C1046.504272,625.938416 1051.814575,647.804871 1043.122925,671.539368 
	C1034.105957,696.162170 1023.804443,720.326660 1013.658264,744.521179 
	C998.486389,780.699707 983.588013,817.014954 967.364136,852.722656 
	C956.320801,877.028076 937.368958,892.342529 909.615234,894.138611 
	C866.561829,896.924744 823.492249,899.460144 780.432068,902.143311 
	C729.224670,905.334229 678.022949,908.617004 626.813232,911.769531 
	C585.909485,914.287659 544.997314,916.669434 504.088989,919.113647 
	C493.946594,919.719604 483.801056,920.891663 473.663300,920.825623 
	C452.919647,920.690735 435.359314,912.715515 421.878143,896.893127 
	C364.938416,830.064392 308.155365,763.102112 251.093231,695.911743 
M671.076843,552.422791 
	C657.902466,536.731812 644.694336,521.068970 631.575073,505.332031 
	C627.815002,500.821625 623.196594,498.122559 617.312927,498.433228 
	C606.835876,498.986481 596.376831,499.873047 585.907349,500.576935 
	C560.482117,502.286316 535.067078,504.188843 509.623993,505.573456 
	C496.884796,506.266724 485.624268,501.930328 476.877655,492.431763 
	C470.000061,484.962952 463.477295,477.156158 457.020020,469.315765 
	C452.996094,464.429840 452.257751,458.765900 454.778442,452.900604 
	C457.382568,446.841400 462.178894,443.548859 468.684021,443.086792 
	C479.980804,442.284393 491.294037,441.714996 502.599731,441.036835 
	C537.015869,438.972565 571.432861,436.921875 605.846741,434.820496 
	C613.336121,434.363220 618.641846,430.761292 621.568420,423.677032 
	C625.440002,414.305511 629.483459,405.004974 633.453186,395.674011 
	C640.414978,379.310120 647.464539,362.982819 654.310425,346.570557 
	C659.567322,333.967590 650.740601,322.195404 637.101868,323.387054 
	C635.442444,323.532013 633.785706,323.718903 632.123657,323.821045 
	C577.927124,327.151855 523.731140,330.492645 469.532776,333.793640 
	C413.171600,337.226349 356.808350,340.625946 300.444885,344.021393 
	C293.490143,344.440369 288.349487,347.628021 285.601593,354.041412 
	C282.918945,360.302551 284.226868,366.072906 288.607300,371.216522 
	C294.763641,378.445557 300.897736,385.693512 307.044556,392.930664 
	C385.224945,484.978973 463.430359,577.006042 541.529297,669.123413 
	C546.501831,674.988464 552.199585,677.553406 559.852173,676.958740 
	C574.796875,675.797241 589.769714,674.986328 604.735596,674.110168 
	C646.972046,671.637512 689.210083,669.193848 731.449219,666.768250 
	C738.675842,666.353210 744.396484,663.569275 747.257446,656.597229 
	C750.010620,649.887512 748.200378,644.054260 743.608276,638.618164 
	C719.528442,610.113220 695.552307,581.520569 671.076843,552.422791 
M467.405426,681.097351 
	C423.184326,629.278198 378.903656,577.509583 334.817749,525.575623 
	C329.325317,519.105469 323.150055,516.625916 314.726654,517.242065 
	C285.330048,519.392456 255.906570,521.205200 226.476822,522.851868 
	C218.859070,523.278076 212.727631,525.489929 209.479660,532.762329 
	C206.301239,539.879028 208.647873,545.893921 213.453506,551.546509 
	C285.951630,636.822327 358.384705,722.153503 430.868134,807.441833 
	C440.358948,818.609375 454.205292,816.550232 459.926697,803.170410 
	C470.774414,777.802429 481.474030,752.370911 492.365906,727.021973 
	C495.605560,719.482117 494.754547,712.920532 489.284241,706.714417 
	C482.016479,698.468994 474.994965,690.006470 467.405426,681.097351 
M953.472351,617.028198 
	C883.596924,534.575928 813.716614,452.127777 743.851196,369.666962 
	C733.131165,357.014313 719.665405,358.980927 713.167053,374.236938 
	C703.073425,397.933807 693.338501,421.790924 682.790466,445.283295 
	C678.316650,455.247314 679.501648,462.863708 686.605286,471.184967 
	C737.854675,531.218933 788.809143,591.504944 839.766968,651.787170 
	C844.224976,657.060913 849.396179,659.524170 856.308472,659.070740 
	C887.711731,657.010620 919.125549,655.113281 950.533203,653.118958 
	C956.940430,652.712158 961.529358,649.406128 964.039246,643.583435 
	C966.533142,637.798035 965.895447,632.153320 961.980408,627.118774 
	C959.426575,623.834900 956.638794,620.732971 953.472351,617.028198 
M663.190491,844.780701 
	C679.479736,843.790222 695.769592,842.809143 712.058105,841.807434 
	C765.576904,838.515930 819.094421,835.204773 872.614563,831.935547 
	C879.526489,831.513367 884.814575,828.583191 887.625427,822.155151 
	C890.340881,815.945557 889.243042,810.109741 884.872559,804.935120 
	C864.456543,780.762207 844.027710,756.600220 823.606506,732.431702 
	C820.022766,728.190308 815.369812,726.175964 809.922974,726.470581 
	C793.627930,727.352051 777.341736,728.400513 761.053223,729.402344 
	C725.318298,731.600281 689.584961,733.823059 653.849426,736.009827 
	C625.094666,737.769409 596.336426,739.471802 567.582458,741.243408 
	C560.253296,741.694946 555.108948,745.349182 552.216125,752.149658 
	C541.223694,777.991028 530.110535,803.781799 519.258484,829.681885 
	C514.179871,841.802917 522.937927,853.247253 536.084900,852.432495 
	C578.134827,849.826538 620.193054,847.355469 663.190491,844.780701 
M259.764069,438.885223 
	C259.490906,437.757599 259.305939,436.599731 258.930603,435.507202 
	C256.044373,427.105469 246.849854,422.555786 238.444641,425.337067 
	C230.285706,428.036896 225.627121,436.988312 228.054352,445.302063 
	C230.177567,452.574463 237.799454,457.704010 245.211411,456.848846 
	C253.937225,455.842072 259.435791,449.400421 259.764069,438.885223 
M916.049866,735.423462 
	C916.230774,736.566528 916.306824,737.738159 916.609436,738.848083 
	C918.658325,746.364380 925.610962,750.702271 933.397827,749.371399 
	C941.590881,747.971008 946.608521,742.065552 946.244446,734.251587 
	C945.870056,726.215698 938.991638,719.237610 931.219666,719.009277 
	C923.637024,718.786377 917.365356,725.225098 916.049866,735.423462 
z"/>
<path fill="#FEFEFF" opacity="1.000000" stroke="none" 
	d="
M671.308472,552.690613 
	C695.552307,581.520569 719.528442,610.113220 743.608276,638.618164 
	C748.200378,644.054260 750.010620,649.887512 747.257446,656.597229 
	C744.396484,663.569275 738.675842,666.353210 731.449219,666.768250 
	C689.210083,669.193848 646.972046,671.637512 604.735596,674.110168 
	C589.769714,674.986328 574.796875,675.797241 559.852173,676.958740 
	C552.199585,677.553406 546.501831,674.988464 541.529297,669.123413 
	C463.430359,577.006042 385.224945,484.978973 307.044556,392.930664 
	C300.897736,385.693512 294.763641,378.445557 288.607300,371.216522 
	C284.226868,366.072906 282.918945,360.302551 285.601593,354.041412 
	C288.349487,347.628021 293.490143,344.440369 300.444885,344.021393 
	C356.808350,340.625946 413.171600,337.226349 469.532776,333.793640 
	C523.731140,330.492645 577.927124,327.151855 632.123657,323.821045 
	C633.785706,323.718903 635.442444,323.532013 637.101868,323.387054 
	C650.740601,322.195404 659.567322,333.967590 654.310425,346.570557 
	C647.464539,362.982819 640.414978,379.310120 633.453186,395.674011 
	C629.483459,405.004974 625.440002,414.305511 621.568420,423.677032 
	C618.641846,430.761292 613.336121,434.363220 605.846741,434.820496 
	C571.432861,436.921875 537.015869,438.972565 502.599731,441.036835 
	C491.294037,441.714996 479.980804,442.284393 468.684021,443.086792 
	C462.178894,443.548859 457.382568,446.841400 454.778442,452.900604 
	C452.257751,458.765900 452.996094,464.429840 457.020020,469.315765 
	C463.477295,477.156158 470.000061,484.962952 476.877655,492.431763 
	C485.624268,501.930328 496.884796,506.266724 509.623993,505.573456 
	C535.067078,504.188843 560.482117,502.286316 585.907349,500.576935 
	C596.376831,499.873047 606.835876,498.986481 617.312927,498.433228 
	C623.196594,498.122559 627.815002,500.821625 631.575073,505.332031 
	C644.694336,521.068970 657.902466,536.731812 671.308472,552.690613 
z"/>
<path fill="#FEFEFE" opacity="1.000000" stroke="none" 
	d="
M467.636536,681.367310 
	C474.994965,690.006470 482.016479,698.468994 489.284241,706.714417 
	C494.754547,712.920532 495.605560,719.482117 492.365906,727.021973 
	C481.474030,752.370911 470.774414,777.802429 459.926697,803.170410 
	C454.205292,816.550232 440.358948,818.609375 430.868134,807.441833 
	C358.384705,722.153503 285.951630,636.822327 213.453506,551.546509 
	C208.647873,545.893921 206.301239,539.879028 209.479660,532.762329 
	C212.727631,525.489929 218.859070,523.278076 226.476822,522.851868 
	C255.906570,521.205200 285.330048,519.392456 314.726654,517.242065 
	C323.150055,516.625916 329.325317,519.105469 334.817749,525.575623 
	C378.903656,577.509583 423.184326,629.278198 467.636536,681.367310 
z"/>
<path fill="#FEFEFE" opacity="1.000000" stroke="none" 
	d="
M953.714111,617.288818 
	C956.638794,620.732971 959.426575,623.834900 961.980408,627.118774 
	C965.895447,632.153320 966.533142,637.798035 964.039246,643.583435 
	C961.529358,649.406128 956.940430,652.712158 950.533203,653.118958 
	C919.125549,655.113281 887.711731,657.010620 856.308472,659.070740 
	C849.396179,659.524170 844.224976,657.060913 839.766968,651.787170 
	C788.809143,591.504944 737.854675,531.218933 686.605286,471.184967 
	C679.501648,462.863708 678.316650,455.247314 682.790466,445.283295 
	C693.338501,421.790924 703.073425,397.933807 713.167053,374.236938 
	C719.665405,358.980927 733.131165,357.014313 743.851196,369.666962 
	C813.716614,452.127777 883.596924,534.575928 953.714111,617.288818 
z"/>
<path fill="#FEFEFF" opacity="1.000000" stroke="none" 
	d="
M662.719299,844.806519 
	C620.193054,847.355469 578.134827,849.826538 536.084900,852.432495 
	C522.937927,853.247253 514.179871,841.802917 519.258484,829.681885 
	C530.110535,803.781799 541.223694,777.991028 552.216125,752.149658 
	C555.108948,745.349182 560.253296,741.694946 567.582458,741.243408 
	C596.336426,739.471802 625.094666,737.769409 653.849426,736.009827 
	C689.584961,733.823059 725.318298,731.600281 761.053223,729.402344 
	C777.341736,728.400513 793.627930,727.352051 809.922974,726.470581 
	C815.369812,726.175964 820.022766,728.190308 823.606506,732.431702 
	C844.027710,756.600220 864.456543,780.762207 884.872559,804.935120 
	C889.243042,810.109741 890.340881,815.945557 887.625427,822.155151 
	C884.814575,828.583191 879.526489,831.513367 872.614563,831.935547 
	C819.094421,835.204773 765.576904,838.515930 712.058105,841.807434 
	C695.769592,842.809143 679.479736,843.790222 662.719299,844.806519 
z"/>
<path fill="#FAFCFD" opacity="1.000000" stroke="none" 
	d="
M259.805298,439.294373 
	C259.435791,449.400421 253.937225,455.842072 245.211411,456.848846 
	C237.799454,457.704010 230.177567,452.574463 228.054352,445.302063 
	C225.627121,436.988312 230.285706,428.036896 238.444641,425.337067 
	C246.849854,422.555786 256.044373,427.105469 258.930603,435.507202 
	C259.305939,436.599731 259.490906,437.757599 259.805298,439.294373 
z"/>
<path fill="#FAFCFC" opacity="1.000000" stroke="none" 
	d="
M916.048462,735.004639 
	C917.365356,725.225098 923.637024,718.786377 931.219666,719.009277 
	C938.991638,719.237610 945.870056,726.215698 946.244446,734.251587 
	C946.608521,742.065552 941.590881,747.971008 933.397827,749.371399 
	C925.610962,750.702271 918.658325,746.364380 916.609436,738.848083 
	C916.306824,737.738159 916.230774,736.566528 916.048462,735.004639 
z"/>
</svg>